<?xml version="1.0" encoding="UTF-8"?>
<svg xmlns="http://www.w3.org/2000/svg" xmlns:xlink="http://www.w3.org/1999/xlink" width="50px" height="50px" viewBox="0 0 50 50" version="1.1">
<g id="surface1">
<path style=" stroke:none;fill-rule:nonzero;fill:rgb(0%,0%,0%);fill-opacity:1;" d="M 0.375 5.359375 C 1.023438 3.992188 2.398438 3.125 3.90625 3.125 L 46.09375 3.125 C 47.609375 3.125 48.976562 3.992188 49.617188 5.359375 C 50.273438 6.722656 50.070312 8.335938 49.03125 9.503906 L 31.25 31.335938 L 31.25 43.75 C 31.25 44.929688 30.585938 46.015625 29.523438 46.542969 C 28.46875 47.070312 27.195312 46.960938 26.25 46.25 L 20 41.5625 C 19.210938 40.976562 18.75 40.046875 18.75 39.0625 L 18.75 31.335938 L 0.882812 9.503906 C -0.0742188 8.335938 -0.269531 6.722656 0.375 5.359375 Z M 0.375 5.359375 "/>
</g>
</svg>
